<svg width="91" height="91" viewBox="0 0 91 91" fill="none" xmlns="http://www.w3.org/2000/svg">
<path d="M65.6491 20.6641C65.6491 21.5912 65.3742 22.4975 64.8591 23.2683C64.3441 24.0392 63.612 24.64 62.7554 24.9948C61.8989 25.3496 60.9564 25.4424 60.0471 25.2615C59.1378 25.0807 58.3026 24.6342 57.647 23.9786C56.9915 23.3231 56.545 22.4879 56.3642 21.5786C56.1833 20.6693 56.2761 19.7268 56.6309 18.8703C56.9857 18.0137 57.5865 17.2816 58.3574 16.7666C59.1282 16.2515 60.0345 15.9766 60.9616 15.9766C62.2048 15.9766 63.3971 16.4704 64.2762 17.3495C65.1553 18.2286 65.6491 19.4209 65.6491 20.6641ZM81.2233 52.3047C73.114 62.6055 60.1882 68.2188 42.7819 69.0117L34.1882 89.0977C33.9476 89.6636 33.5453 90.146 33.0318 90.4844C32.5183 90.8228 31.9164 91.0022 31.3015 91H31.1022C30.4583 90.9597 29.8426 90.721 29.3397 90.3167C28.8368 89.9125 28.4714 89.3625 28.2936 88.7422L22.5085 68.4883L2.2663 62.6914C1.64431 62.5167 1.09176 62.1535 0.684685 61.6519C0.277615 61.1502 0.0360385 60.5347 -0.00679438 59.89C-0.0496273 59.2454 0.108389 58.6033 0.445505 58.0522C0.782622 57.5011 1.28227 57.068 1.87567 56.8125L21.9655 48.2188C22.7468 30.8086 28.3757 17.8828 38.6804 9.77737C55.5593 -3.50388 79.6608 0.8594 84.321 1.86721C85.495 2.12089 86.5711 2.70749 87.4204 3.55682C88.2698 4.40615 88.8564 5.48223 89.11 6.65628C90.1413 11.3125 94.5085 35.4375 81.2233 52.3281V52.3047ZM63.1257 58.4258C59.5131 57.0498 56.367 54.6736 54.0552 51.5753C51.7434 48.477 50.3615 44.7845 50.071 40.9297C46.217 40.6398 42.5253 39.2585 39.4276 36.9473C36.3299 34.6361 33.9544 31.4907 32.5788 27.8789C29.8444 34.0742 28.3757 41.5938 28.1647 50.3867C28.1502 50.9855 27.9638 51.5674 27.628 52.0632C27.2921 52.5591 26.8208 52.948 26.2702 53.1836L12.4382 59.1016L25.8991 62.9571C26.4092 63.1031 26.8738 63.3765 27.249 63.7517C27.6242 64.1269 27.8976 64.5915 28.0436 65.1016L31.8874 78.5625L37.8171 64.7305C38.0535 64.1781 38.4442 63.7056 38.9424 63.3696C39.4405 63.0336 40.0249 62.8483 40.6257 62.836C49.4069 62.6289 56.9265 61.1524 63.1257 58.4258ZM83.0202 7.98049C78.8405 7.07424 57.239 3.14065 42.5632 14.6914C40.7134 16.1493 39.0324 17.8093 37.5515 19.6406C37.4015 21.6826 37.6993 23.7327 38.4239 25.6476C39.1486 27.5625 40.2826 29.2961 41.7469 30.7272C43.2111 32.1583 44.9701 33.2524 46.9011 33.9331C48.8321 34.6138 50.8885 34.8646 52.9265 34.668C53.3846 34.6245 53.8467 34.6828 54.2797 34.8386C54.7127 34.9944 55.106 35.2439 55.4314 35.5693C55.7568 35.8947 56.0063 36.288 56.1621 36.721C56.3179 37.154 56.3762 37.6161 56.3327 38.0742C56.136 40.1129 56.3869 42.17 57.068 44.1016C57.7492 46.0332 58.844 47.7927 60.276 49.257C61.708 50.7214 63.4426 51.8553 65.3585 52.5794C67.2743 53.3035 69.3253 53.6004 71.3679 53.4492C73.1966 51.9709 74.8541 50.2925 76.3093 48.4453C87.8601 33.7696 83.9265 12.1641 83.0202 7.98049Z" fill="#DEAD6F" fill-opacity="0.6"/>
</svg>
