<svg width="240" height="214" viewBox="0 0 240 214" fill="none" xmlns="http://www.w3.org/2000/svg">
<path d="M111.833 48.1822C124.33 56.5955 135.409 42.586 133.651 28.9357C133.027 24.228 131.25 19.9174 128.263 16.6277C123.385 11.2205 113.213 10.6533 109.508 16.363C103.495 25.5514 101.038 40.9033 111.833 48.1822ZM77.4616 36.9708C90.7905 43.8527 100.603 28.5008 97.5589 15.0207C96.5191 10.4075 94.326 6.28598 91.0363 3.35551C85.648 -1.48449 75.4386 -0.822771 72.2245 5.34067C67.0253 15.2475 66.0044 30.9775 77.4616 36.9708ZM18.8144 34.9289C12.8778 31.1855 3.48142 35.6474 1.11814 42.5293C-0.318734 46.7075 -0.224203 51.3585 1.15595 55.9149C5.25861 69.1303 21.6503 77.5814 29.988 64.9899C37.1724 54.2133 28.381 41.0168 18.8144 34.9289ZM56.8349 41.6407C64.6999 31.8661 57.3264 17.7999 48.5917 10.6155C43.1656 6.19145 33.6936 9.40551 30.8388 15.9093C29.0994 19.8229 28.8347 24.4549 29.78 29.1058C32.597 42.6049 47.741 53.0033 56.8349 41.6407ZM113.591 73.8569C109.394 60.3389 94.1936 54.478 83.5683 53.1357C67.7249 51.1505 50.5013 59.5827 42.693 76.2202C39.5546 82.913 35.1116 94.7105 39.3277 102.254C45.1508 112.596 59.7842 105.979 66.8174 102.235C75.155 97.7166 81.7911 93.7274 91.3766 95.2588L92.3975 95.4289C104.516 96.9982 119.585 93.0657 113.591 73.8569ZM127.015 150.597C120.738 147.932 112.646 154.095 111.606 161.298C110.982 165.666 111.909 170.26 114.026 174.495C120.171 186.803 137.186 192.248 142.858 178.276C147.736 166.214 137.111 154.851 127.015 150.597ZM165.092 149.784C171.255 138.422 161.632 125.944 151.782 120.612C145.694 117.303 136.846 122.446 135.05 129.479C133.972 133.733 134.464 138.384 136.184 142.789C141.176 155.664 157.889 162.943 165.092 149.784ZM238.978 122.862C237.56 118.306 235.064 114.411 231.548 111.726C225.743 107.34 215.458 108.89 212.622 115.318C208.085 125.698 208.142 141.56 220.147 146.495C234.081 152.28 242.967 136.096 238.978 122.862ZM184.811 142.127C198.688 146.476 205.457 129.385 200.239 116.604C198.443 112.218 195.626 108.512 191.996 106.224C186.002 102.443 176.341 105.052 174.318 111.764C171.104 122.616 172.825 138.403 184.811 142.127ZM215.836 162.905C200.088 153.471 181.068 156.118 169.043 166.592C160.97 173.644 151.65 186.973 155.715 200.548C161.481 219.832 176.171 214.671 185.322 206.598L186.097 205.879C193.187 199.281 200.919 198.865 210.354 197.976C218.275 197.163 234.138 194.46 233.155 182.643C232.474 174.003 222.17 166.706 215.836 162.905Z" fill="#F7EEE4"/>
</svg>
